<svg width="100" height="100" viewBox="0 0 100 100" fill="none" xmlns="http://www.w3.org/2000/svg">
<g opacity="0.1">
<path d="M31.8137 95.1303C48.2793 95.1303 61.6273 81.5302 61.6273 64.7536C61.6273 47.9771 48.2793 34.377 31.8137 34.377C15.348 34.377 2 47.9771 2 64.7536C2 81.5302 15.348 95.1303 31.8137 95.1303Z" stroke="white" stroke-width="1.5" stroke-linecap="round" stroke-linejoin="round"/>
<path d="M69.0808 95.1303C85.5464 95.1303 98.8944 81.5302 98.8944 64.7536C98.8944 47.9771 85.5464 34.377 69.0808 34.377C52.6151 34.377 39.2671 47.9771 39.2671 64.7536C39.2671 81.5302 52.6151 95.1303 69.0808 95.1303Z" stroke="white" stroke-width="1.5" stroke-linecap="round" stroke-linejoin="round"/>
<path d="M50.447 64.7533C66.9126 64.7533 80.2606 51.1532 80.2606 34.3767C80.2606 17.6001 66.9126 4 50.447 4C33.9813 4 20.6333 17.6001 20.6333 34.3767C20.6333 51.1532 33.9813 64.7533 50.447 64.7533Z" stroke="white" stroke-width="1.5" stroke-linecap="round" stroke-linejoin="round"/>
</g>
</svg>
