<svg width="100" height="100" viewBox="0 0 100 100" fill="none" xmlns="http://www.w3.org/2000/svg">
<g opacity="0.1">
<path d="M62.9286 86.2151C59.7018 89.4419 55.8711 92.0015 51.6551 93.7478C47.4391 95.4941 42.9205 96.3929 38.3572 96.3929C29.1411 96.3929 20.3025 92.7319 13.7857 86.2151C7.26898 79.6984 3.60791 70.8598 3.60791 61.6437C3.60791 52.4276 7.26898 43.589 13.7857 37.0723L47.2857 3.57227L62.9286 19.2151L32.2143 50.0008C30.24 52.4283 29.2359 55.5016 29.3964 58.6264C29.5568 61.7513 30.8702 64.7056 33.0827 66.9181C35.2952 69.1306 38.2496 70.4441 41.3744 70.6045C44.4993 70.7649 47.5726 69.7609 50 67.7865L80.7143 37.0723L96.4286 52.7151L62.9286 86.2151Z" stroke="white" stroke-width="1.5" stroke-linecap="round" stroke-linejoin="round"/>
<path d="M65.6431 52.2148L81.2859 67.8577" stroke="white" stroke-width="1.5" stroke-linecap="round" stroke-linejoin="round"/>
<path d="M32.1431 18.7148L47.7859 34.3577" stroke="white" stroke-width="1.5" stroke-linecap="round" stroke-linejoin="round"/>
</g>
</svg>
