<svg width="24" height="24" viewBox="0 0 24 24" fill="none" xmlns="http://www.w3.org/2000/svg">
<path d="M12 22.9542C13.1256 22.9542 14.2402 22.7325 15.2801 22.3017C16.3201 21.8709 17.265 21.2396 18.0609 20.4436C18.8568 19.6477 19.4882 18.7028 19.919 17.6629C20.3497 16.6229 20.5714 15.5084 20.5714 14.3827V9.61702C20.5715 7.51134 19.7966 5.47929 18.3943 3.90845" stroke="white" stroke-width="1.5" stroke-linecap="round" stroke-linejoin="round"/>
<path d="M3.42871 11.52V14.3829C3.42814 16.0702 3.9256 17.7202 4.85876 19.1261C5.79192 20.5319 7.11926 21.631 8.67443 22.2857" stroke="white" stroke-width="1.5" stroke-linecap="round" stroke-linejoin="round"/>
<path d="M16.2858 2.19423C14.3171 1.05764 11.9776 0.749632 9.78182 1.33796C7.58606 1.92628 5.71392 3.36275 4.57724 5.33138C4.1092 6.13971 3.77898 7.02032 3.6001 7.93709" stroke="white" stroke-width="1.5" stroke-linecap="round" stroke-linejoin="round"/>
<path d="M11.1089 6.01708C11.7394 5.88618 12.3912 5.89847 13.0164 6.05305C13.6415 6.20762 14.224 6.50053 14.7208 6.91018C15.2177 7.31984 15.6162 7.83579 15.8871 8.41999C16.158 9.00419 16.2943 9.64175 16.286 10.2856V13.0456" stroke="white" stroke-width="1.5" stroke-linecap="round" stroke-linejoin="round"/>
<path d="M15.1887 16.6456C14.6054 17.2953 13.8376 17.7514 12.988 17.9527C12.1384 18.1541 11.2476 18.0912 10.4348 17.7724C9.62192 17.4536 8.92584 16.8941 8.43968 16.1689C7.95352 15.4436 7.70048 14.5872 7.71441 13.7141V10.2856C7.71115 9.6968 7.82781 9.11352 8.05727 8.57129" stroke="white" stroke-width="1.5" stroke-linecap="round" stroke-linejoin="round"/>
<path d="M12 10.4741V13.337" stroke="white" stroke-width="1.5" stroke-linecap="round" stroke-linejoin="round"/>
</svg>
