<svg width="100" height="100" viewBox="0 0 100 100" fill="none" xmlns="http://www.w3.org/2000/svg">
<g opacity="0.1">
<path d="M37.3573 16.0722L40.4288 8.1437C40.9468 6.8013 41.8581 5.64663 43.0434 4.83093C44.2287 4.01522 45.6328 3.57652 47.0716 3.57227H52.9288C54.3676 3.57652 55.7717 4.01522 56.957 4.83093C58.1423 5.64663 59.0536 6.8013 59.5716 8.1437L62.6431 16.0722L73.0716 22.0722L81.5002 20.7865C82.9036 20.596 84.3321 20.827 85.6039 21.4503C86.8757 22.0735 87.9336 23.0607 88.6431 24.2865L91.5002 29.2865C92.2323 30.5319 92.5696 31.9699 92.4676 33.4109C92.3656 34.852 91.8291 36.2282 90.9288 37.3579L85.7145 44.0008V56.0008L91.0716 62.6437C91.9719 63.7734 92.5085 65.1496 92.6105 66.5907C92.7125 68.0317 92.3752 69.4697 91.6431 70.7151L88.7859 75.7151C88.0765 76.9409 87.0186 77.9282 85.7468 78.5514C84.4749 79.1746 83.0465 79.4056 81.6431 79.2151L73.2145 77.9294L62.7859 83.9294L59.7145 91.8579C59.1965 93.2003 58.2852 94.355 57.0998 95.1707C55.9145 95.9864 54.5105 96.4251 53.0716 96.4294H47.0716C45.6328 96.4251 44.2287 95.9864 43.0434 95.1707C41.8581 94.355 40.9468 93.2003 40.4288 91.8579L37.3573 83.9294L26.9288 77.9294L18.5002 79.2151C17.0967 79.4056 15.6683 79.1746 14.3965 78.5514C13.1247 77.9282 12.0668 76.9409 11.3573 75.7151L8.5002 70.7151C7.76806 69.4697 7.43075 68.0317 7.53276 66.5907C7.63478 65.1496 8.17134 63.7734 9.07162 62.6437L14.2859 56.0008V44.0008L8.92877 37.3579C8.02848 36.2282 7.49193 34.852 7.38991 33.4109C7.28789 31.9699 7.62521 30.5319 8.35734 29.2865L11.2145 24.2865C11.9239 23.0607 12.9818 22.0735 14.2536 21.4503C15.5255 20.827 16.9539 20.596 18.3573 20.7865L26.7859 22.0722L37.3573 16.0722ZM35.7145 50.0008C35.7145 52.8262 36.5523 55.5882 38.1221 57.9375C39.6918 60.2868 41.9229 62.1178 44.5333 63.1991C47.1437 64.2803 50.016 64.5632 52.7872 64.012C55.5584 63.4608 58.1038 62.1002 60.1017 60.1023C62.0996 58.1044 63.4602 55.559 64.0114 52.7878C64.5626 50.0166 64.2797 47.1443 63.1985 44.5339C62.1172 41.9235 60.2862 39.6924 57.9369 38.1227C55.5876 36.5529 52.8256 35.7151 50.0002 35.7151C46.2114 35.7151 42.5778 37.2202 39.8987 39.8993C37.2196 42.5784 35.7145 46.212 35.7145 50.0008Z" stroke="white" stroke-width="1.5" stroke-linecap="round" stroke-linejoin="round"/>
</g>
</svg>
