<svg width="100" height="100" viewBox="0 0 100 100" fill="none" xmlns="http://www.w3.org/2000/svg">
<g opacity="0.1">
<path d="M21.4284 96.4291C31.2907 96.4291 39.2856 88.4342 39.2856 78.572C39.2856 68.7098 31.2907 60.7148 21.4284 60.7148C11.5662 60.7148 3.57129 68.7098 3.57129 78.572C3.57129 88.4342 11.5662 96.4291 21.4284 96.4291Z" stroke="white" stroke-width="1.5" stroke-linecap="round" stroke-linejoin="round"/>
<path d="M39.2854 21.4286V10.7144C39.2854 8.81995 38.5328 7.00313 37.1933 5.66359C35.8537 4.32404 34.0369 3.57149 32.1425 3.57149H23.7139C22.0328 3.54092 20.3948 4.10439 19.0882 5.16271C17.7816 6.22104 16.8903 7.70636 16.5711 9.35721L3.92822 75.0001" stroke="white" stroke-width="1.5" stroke-linecap="round" stroke-linejoin="round"/>
<path d="M32.1426 39.2852H67.8569" stroke="white" stroke-width="1.5" stroke-linecap="round" stroke-linejoin="round"/>
<path d="M39.2856 57.1426V78.5711" stroke="white" stroke-width="1.5" stroke-linecap="round" stroke-linejoin="round"/>
<path d="M78.5715 96.4291C88.4337 96.4291 96.4286 88.4342 96.4286 78.572C96.4286 68.7098 88.4337 60.7148 78.5715 60.7148C68.7093 60.7148 60.7144 68.7098 60.7144 78.572C60.7144 88.4342 68.7093 96.4291 78.5715 96.4291Z" stroke="white" stroke-width="1.5" stroke-linecap="round" stroke-linejoin="round"/>
<path d="M60.7144 21.4286V10.7144C60.7144 8.81995 61.4669 7.00313 62.8065 5.66359C64.146 4.32404 65.9628 3.57149 67.8572 3.57149H76.2858C77.9669 3.54092 79.605 4.10439 80.9115 5.16271C82.2181 6.22104 83.1094 7.70636 83.4286 9.35721L96.2144 75.0001" stroke="white" stroke-width="1.5" stroke-linecap="round" stroke-linejoin="round"/>
<path d="M60.7144 57.1426V78.5711" stroke="white" stroke-width="1.5" stroke-linecap="round" stroke-linejoin="round"/>
</g>
</svg>
