<svg width="30" height="30" viewBox="0 0 30 30" fill="none" xmlns="http://www.w3.org/2000/svg">
<g clip-path="url(#clip0_233_3128)">
<path d="M14.9999 11.7857C22.6924 11.7857 28.9284 9.38724 28.9284 6.42857C28.9284 3.4699 22.6924 1.07143 14.9999 1.07143C7.30732 1.07143 1.07129 3.4699 1.07129 6.42857C1.07129 9.38724 7.30732 11.7857 14.9999 11.7857Z" stroke="white" stroke-width="1.5" stroke-linecap="round" stroke-linejoin="round"/>
<path d="M1.07129 6.42857V23.5714C1.07129 26.5286 7.307 28.9286 14.9999 28.9286C22.6927 28.9286 28.9284 26.5286 28.9284 23.5714V6.42857" stroke="white" stroke-width="1.5" stroke-linecap="round" stroke-linejoin="round"/>
<path d="M28.9284 15C28.9284 17.9571 22.6927 20.3571 14.9999 20.3571C7.307 20.3571 1.07129 17.9571 1.07129 15" stroke="white" stroke-width="1.5" stroke-linecap="round" stroke-linejoin="round"/>
</g>
<defs>
<clipPath id="clip0_233_3128">
<rect width="30" height="30" fill="white"/>
</clipPath>
</defs>
</svg>
