<svg width="100" height="100" viewBox="0 0 100 100" fill="none" xmlns="http://www.w3.org/2000/svg">
<g opacity="0.1">
<path d="M60.7146 35.7154C64.6595 35.7154 67.8575 32.5174 67.8575 28.5725C67.8575 24.6277 64.6595 21.4297 60.7146 21.4297C56.7697 21.4297 53.5718 24.6277 53.5718 28.5725C53.5718 32.5174 56.7697 35.7154 60.7146 35.7154Z" stroke="white" stroke-width="1.5" stroke-linecap="round" stroke-linejoin="round"/>
<path d="M32.1432 71.43C34.1157 71.43 35.7146 69.831 35.7146 67.8585C35.7146 65.8861 34.1157 64.2871 32.1432 64.2871C30.1708 64.2871 28.5718 65.8861 28.5718 67.8585C28.5718 69.831 30.1708 71.43 32.1432 71.43Z" stroke="white" stroke-width="1.5" stroke-linecap="round" stroke-linejoin="round"/>
<path d="M32.1429 46.4302C36.0877 46.4302 39.2857 43.2323 39.2857 39.2874C39.2857 35.3425 36.0877 32.1445 32.1429 32.1445C28.198 32.1445 25 35.3425 25 39.2874C25 43.2323 28.198 46.4302 32.1429 46.4302Z" stroke="white" stroke-width="1.5" stroke-linecap="round" stroke-linejoin="round"/>
<path d="M68.0002 87.7151C67.9205 86.3296 67.4391 84.9973 66.6145 83.8811C65.79 82.7648 64.6581 81.9129 63.3573 81.4294C60.1266 80.3676 57.3807 78.1881 55.6132 75.2828C53.8457 72.3775 53.1726 68.937 53.7149 65.5798C54.2573 62.2226 55.9794 59.169 58.5718 56.968C61.1641 54.7669 64.4566 53.5629 67.8573 53.5723H81.2144C83.5054 53.5787 85.7642 53.034 87.8005 51.9842C89.8367 50.9344 91.5906 49.4103 92.9143 47.5404C94.2379 45.6705 95.0924 43.5097 95.4057 41.2403C95.719 38.9709 95.4819 36.6594 94.7144 34.5009C91.8734 26.4792 86.8824 19.3927 80.2867 14.0155C73.6909 8.63828 65.7441 5.1773 57.3146 4.01065C48.8851 2.84401 40.297 4.01659 32.4888 7.40027C24.6805 10.784 17.9524 16.2486 13.0395 23.1971C8.12669 30.1456 5.21806 38.3108 4.63145 46.8004C4.04484 55.2901 5.80281 63.7776 9.71329 71.3358C13.6238 78.894 19.5363 85.2321 26.805 89.6575C34.0737 94.083 42.4188 96.4256 50.9287 96.4294C55.1313 96.4412 59.3148 95.8641 63.3573 94.7151C64.842 94.2991 66.1278 93.3633 66.9801 92.0783C67.8324 90.7933 68.1944 89.2448 68.0002 87.7151V87.7151Z" stroke="white" stroke-width="1.5" stroke-linecap="round" stroke-linejoin="round"/>
</g>
</svg>
