<svg width="30" height="30" viewBox="0 0 30 30" fill="none" xmlns="http://www.w3.org/2000/svg">
<path d="M9.64272 27.8571C14.3766 27.8571 18.2141 24.0195 18.2141 19.2857C18.2141 14.5518 14.3766 10.7142 9.64272 10.7142C4.90885 10.7142 1.07129 14.5518 1.07129 19.2857C1.07129 24.0195 4.90885 27.8571 9.64272 27.8571Z" stroke="white" stroke-width="1.5" stroke-linecap="round" stroke-linejoin="round"/>
<path d="M20.3571 27.8571C25.0909 27.8571 28.9285 24.0195 28.9285 19.2857C28.9285 14.5518 25.0909 10.7142 20.3571 10.7142C15.6232 10.7142 11.7856 14.5518 11.7856 19.2857C11.7856 24.0195 15.6232 27.8571 20.3571 27.8571Z" stroke="white" stroke-width="1.5" stroke-linecap="round" stroke-linejoin="round"/>
<path d="M14.9997 19.2857C19.7335 19.2857 23.5711 15.4481 23.5711 10.7143C23.5711 5.98038 19.7335 2.14282 14.9997 2.14282C10.2658 2.14282 6.42822 5.98038 6.42822 10.7143C6.42822 15.4481 10.2658 19.2857 14.9997 19.2857Z" stroke="white" stroke-width="1.5" stroke-linecap="round" stroke-linejoin="round"/>
</svg>
