<svg width="24" height="24" viewBox="0 0 24 24" fill="none" xmlns="http://www.w3.org/2000/svg">
<g clip-path="url(#clip0_233_3146)">
<path d="M12 17.1772V18.9086" stroke="white" stroke-width="1.5" stroke-linecap="round" stroke-linejoin="round"/>
<path d="M12 8.58859V10.2" stroke="white" stroke-width="1.5" stroke-linecap="round" stroke-linejoin="round"/>
<path d="M12.0006 23.1257C18.0006 23.1257 22.2863 21 22.2863 16.2686C22.2863 11.1257 19.7148 7.69715 14.572 5.12573L16.5948 2.52001C16.6976 2.34905 16.7534 2.15395 16.7564 1.9545C16.7595 1.75505 16.7098 1.55833 16.6123 1.38429C16.5148 1.21025 16.3731 1.06507 16.2014 0.963462C16.0298 0.861857 15.8343 0.807439 15.6348 0.805725H8.36627C8.16681 0.807439 7.97134 0.861857 7.79968 0.963462C7.62802 1.06507 7.48628 1.21025 7.38882 1.38429C7.29135 1.55833 7.24163 1.75505 7.2447 1.9545C7.24776 2.15395 7.30351 2.34905 7.40627 2.52001L9.42913 5.14287C4.28627 7.73144 1.71484 11.16 1.71484 16.3029C1.71484 21 6.00056 23.1257 12.0006 23.1257Z" stroke="white" stroke-width="1.5" stroke-linecap="round" stroke-linejoin="round"/>
<path d="M10.2867 16.3886C10.4958 16.6369 10.7591 16.834 11.0562 16.9647C11.3534 17.0955 11.6766 17.1564 12.0009 17.1429C12.4967 17.1767 12.9863 17.0169 13.3667 16.6972C13.7472 16.3775 13.9888 15.9228 14.0409 15.4286C13.9888 14.9344 13.7472 14.4796 13.3667 14.1599C12.9863 13.8402 12.4967 13.6805 12.0009 13.7143C11.5052 13.7481 11.0156 13.5884 10.6351 13.2687C10.2547 12.949 10.013 12.4942 9.96094 12C10.0088 11.5041 10.2493 11.0467 10.6308 10.7262C11.0122 10.4057 11.5042 10.2475 12.0009 10.2857C12.3196 10.2662 12.6386 10.3176 12.935 10.4362C13.2315 10.5548 13.4979 10.7376 13.7152 10.9714" stroke="white" stroke-width="1.5" stroke-linecap="round" stroke-linejoin="round"/>
</g>
<defs>
<clipPath id="clip0_233_3146">
<rect width="24" height="24" fill="white"/>
</clipPath>
</defs>
</svg>
