<svg width="30" height="30" viewBox="0 0 30 30" fill="none" xmlns="http://www.w3.org/2000/svg">
<g clip-path="url(#clip0_160_98395)">
<path d="M18.2146 10.7143C19.3981 10.7143 20.3575 9.75491 20.3575 8.57145C20.3575 7.38798 19.3981 6.42859 18.2146 6.42859C17.0312 6.42859 16.0718 7.38798 16.0718 8.57145C16.0718 9.75491 17.0312 10.7143 18.2146 10.7143Z" stroke="white" stroke-width="1.5" stroke-linecap="round" stroke-linejoin="round"/>
<path d="M9.64321 21.4285C10.2349 21.4285 10.7146 20.9488 10.7146 20.3571C10.7146 19.7653 10.2349 19.2856 9.64321 19.2856C9.05147 19.2856 8.57178 19.7653 8.57178 20.3571C8.57178 20.9488 9.05147 21.4285 9.64321 21.4285Z" stroke="white" stroke-width="1.5" stroke-linecap="round" stroke-linejoin="round"/>
<path d="M9.64286 13.9285C10.8263 13.9285 11.7857 12.9691 11.7857 11.7857C11.7857 10.6022 10.8263 9.64282 9.64286 9.64282C8.45939 9.64282 7.5 10.6022 7.5 11.7857C7.5 12.9691 8.45939 13.9285 9.64286 13.9285Z" stroke="white" stroke-width="1.5" stroke-linecap="round" stroke-linejoin="round"/>
<path d="M20.4002 26.3143C20.3763 25.8986 20.2319 25.4989 19.9845 25.164C19.7371 24.8292 19.3976 24.5736 19.0073 24.4286C18.0381 24.11 17.2144 23.4562 16.6841 22.5846C16.1539 21.713 15.9519 20.6808 16.1146 19.6737C16.2773 18.6665 16.794 17.7504 17.5717 17.0901C18.3494 16.4298 19.3371 16.0686 20.3573 16.0714H24.3645C25.0518 16.0733 25.7294 15.9099 26.3403 15.595C26.9512 15.28 27.4773 14.8228 27.8744 14.2618C28.2715 13.7009 28.5279 13.0526 28.6219 12.3718C28.7158 11.691 28.6447 10.9976 28.4145 10.35C27.5622 7.94349 26.0649 5.81753 24.0861 4.20437C22.1074 2.59121 19.7234 1.55292 17.1945 1.20293C14.6657 0.852935 12.0893 1.20471 9.74677 2.21981C7.4043 3.23492 5.38587 4.8743 3.91201 6.95886C2.43815 9.04342 1.56557 11.493 1.38958 14.0399C1.2136 16.5867 1.74099 19.133 2.91414 21.4005C4.08728 23.6679 5.86105 25.5694 8.04165 26.897C10.2223 28.2246 12.7258 28.9274 15.2788 28.9286C16.5395 28.9321 17.7946 28.759 19.0073 28.4143C19.4528 28.2895 19.8385 28.0087 20.0942 27.6232C20.3499 27.2377 20.4585 26.7732 20.4002 26.3143V26.3143Z" stroke="white" stroke-width="1.5" stroke-linecap="round" stroke-linejoin="round"/>
</g>
<defs>
<clipPath id="clip0_160_98395">
<rect width="30" height="30" fill="white"/>
</clipPath>
</defs>
</svg>
