<svg width="130" height="130" viewBox="0 0 130 130" fill="none" xmlns="http://www.w3.org/2000/svg">
<circle cx="65.0059" cy="65.0005" r="65" fill="url(#paint0_linear_405_405)"/>
<circle cx="65.0059" cy="65.0005" r="37" fill="white"/>
<g clip-path="url(#clip0_405_405)">
<path d="M59.0986 73.8303C59.1043 74.1577 59.1995 74.4773 59.3741 74.7543C59.5486 75.0314 59.7958 75.2553 60.0886 75.4017C60.3811 75.567 60.7113 75.6538 61.0472 75.6538C61.3831 75.6538 61.7133 75.567 62.0058 75.4017L75.5986 66.9946C75.8944 66.8521 76.1439 66.6291 76.3186 66.3511C76.4932 66.0731 76.5859 65.7515 76.5859 65.4232C76.5859 65.0949 76.4932 64.7733 76.3186 64.4953C76.1439 64.2173 75.8944 63.9942 75.5986 63.8517L62.0058 55.5075C61.7133 55.3422 61.3831 55.2554 61.0472 55.2554C60.7113 55.2554 60.3811 55.3422 60.0886 55.5075C59.7958 55.6539 59.5486 55.8778 59.3741 56.1549C59.1995 56.4319 59.1043 56.7515 59.0986 57.0789V73.8303Z" fill="#3F82FB"/>
</g>
<path d="M70.6101 18.0082C69.9397 17.9272 69.3285 17.7331 68.7767 17.4259C68.2248 17.1186 67.7579 16.7263 67.376 16.2487C66.994 15.7712 66.7149 15.2315 66.5388 14.6295C66.3718 14.0204 66.3288 13.3805 66.4097 12.7101C66.4917 12.0314 66.6858 11.4203 66.992 10.8766C67.2982 10.3329 67.6937 9.87458 68.1783 9.50175C68.663 9.12892 69.2094 8.86309 69.8175 8.70426C70.4267 8.53726 71.0705 8.49474 71.7491 8.57671C72.4277 8.65867 73.0429 8.85327 73.5948 9.1605C74.1466 9.46773 74.6135 9.8601 74.9955 10.3376C75.3784 10.8069 75.6539 11.3421 75.8219 11.9431C75.998 12.5451 76.0451 13.1854 75.9632 13.864C75.8822 14.5345 75.684 15.1452 75.3686 15.696C75.0542 16.2388 74.6547 16.6965 74.17 17.0694C73.6854 17.4422 73.1385 17.7121 72.5294 17.8791C71.9284 18.0471 71.2887 18.0901 70.6101 18.0082ZM70.7937 16.4874C71.2434 16.5417 71.6657 16.5139 72.0605 16.4039C72.4563 16.2858 72.8105 16.1005 73.1231 15.8479C73.4438 15.5963 73.7014 15.2831 73.896 14.9084C74.0987 14.5347 74.2277 14.1189 74.283 13.6611C74.3383 13.2032 74.3115 12.7727 74.2026 12.3697C74.1028 11.9594 73.9271 11.5939 73.6756 11.2732C73.4331 10.9453 73.1332 10.6809 72.7759 10.4802C72.4186 10.2794 72.0151 10.1518 71.5654 10.0975C71.1239 10.0442 70.7058 10.0725 70.3109 10.1824C69.9161 10.2923 69.5578 10.4772 69.2361 10.737C68.9236 10.9896 68.6659 11.3027 68.4632 11.6764C68.2614 12.042 68.1329 12.4537 68.0776 12.9115C68.0223 13.3694 68.0486 13.804 68.1566 14.2152C68.2645 14.6264 68.4402 14.9919 68.6836 15.3117C68.9352 15.6324 69.2392 15.8972 69.5955 16.1062C69.9528 16.307 70.3522 16.434 70.7937 16.4874Z" fill="white"/>
<path d="M79.456 19.9243C78.9637 19.7605 78.5703 19.5082 78.2758 19.1672C77.9891 18.8288 77.8131 18.4318 77.7477 17.976C77.6901 17.5229 77.7484 17.0346 77.9225 16.511L79.2207 12.6074L80.7562 13.1182L79.5009 16.8928C79.4125 17.1585 79.3853 17.4098 79.4194 17.6468C79.4638 17.8785 79.5642 18.0855 79.7206 18.2677C79.8873 18.4447 80.0958 18.5748 80.3458 18.658C80.5959 18.7412 80.8368 18.7605 81.0685 18.7161C81.3029 18.6639 81.5085 18.5543 81.6855 18.3875C81.8625 18.2207 81.9977 17.9967 82.0913 17.7153L83.335 13.9759L84.8705 14.4867L82.7497 20.8636L81.2962 20.3802L81.7133 19.1259L81.7682 19.3915C81.4898 19.7328 81.1462 19.944 80.7374 20.025C80.3364 20.1086 79.9092 20.0751 79.456 19.9243Z" fill="white"/>
<path d="M84.2852 21.5859L87.2051 15.5331L88.5736 16.1933L87.9241 17.5396L87.9095 17.2857C88.2687 16.9012 88.6396 16.6915 89.0221 16.6566C89.4121 16.6253 89.8185 16.7116 90.2413 16.9156L90.5973 17.0874L89.9747 18.3781L89.4518 18.1258C89.0364 17.9254 88.64 17.8942 88.2626 18.0321C87.8887 18.1626 87.5909 18.4579 87.369 18.9178L85.7427 22.2891L84.2852 21.5859Z" fill="white"/>
<path d="M92.6386 26.3913L95.5498 17.0884L97.0172 18.1789L94.4938 25.8L94.2063 25.5863L100.775 20.9716L102.242 22.0621L94.1853 27.5408L92.6386 26.3913Z" fill="white"/>
<path d="M97.2038 30.1121L101.844 25.2511L103.015 26.3686L98.3743 31.2296L97.2038 30.1121ZM102.364 24.7061L103.559 23.4551L104.729 24.5726L103.535 25.8236L102.364 24.7061Z" fill="white"/>
<path d="M101.474 34.8427C101.063 34.3383 100.814 33.7919 100.728 33.2035C100.648 32.61 100.722 32.0292 100.95 31.4612C101.178 30.8933 101.544 30.4038 102.048 29.9928C102.559 29.5767 103.112 29.3171 103.708 29.214C104.304 29.111 104.884 29.1586 105.449 29.3568C106.02 29.5614 106.505 29.9095 106.906 30.4011C107.228 30.797 107.434 31.2132 107.525 31.6497C107.626 32.0874 107.609 32.5101 107.474 32.9178L107.059 32.9369L110.134 30.4322L111.156 31.6869L103.906 37.5936L102.939 36.406L103.944 35.5867L103.804 35.9236C103.378 35.9737 102.958 35.9016 102.545 35.7072C102.138 35.5076 101.781 35.2194 101.474 34.8427ZM102.732 34.0404C102.966 34.3278 103.239 34.5254 103.55 34.6332C103.861 34.7411 104.184 34.7594 104.519 34.6883C104.859 34.6235 105.182 34.4663 105.489 34.2166C105.789 33.9721 106.005 33.6898 106.137 33.3696C106.281 33.0506 106.332 32.7279 106.289 32.4016C106.246 32.0753 106.108 31.7684 105.874 31.4811C105.645 31.2002 105.369 31.0052 105.046 30.8961C104.73 30.7819 104.402 30.7572 104.062 30.8219C103.733 30.8879 103.416 31.0457 103.109 31.2954C102.803 31.5451 102.581 31.8268 102.443 32.1406C102.311 32.4608 102.269 32.7872 102.317 33.1199C102.365 33.4527 102.503 33.7595 102.732 34.0404Z" fill="white"/>
<path d="M106.412 42.0782C106.076 41.4733 105.919 40.868 105.941 40.2625C105.963 39.657 106.138 39.0983 106.466 38.5865C106.794 38.0747 107.243 37.661 107.812 37.3453C108.402 37.0176 108.994 36.8539 109.588 36.8542C110.193 36.8577 110.75 37.0052 111.26 37.2966C111.774 37.5952 112.183 38.0182 112.487 38.5655C112.743 39.0264 112.891 39.4716 112.931 39.9012C112.976 40.338 112.933 40.7527 112.802 41.1454C112.672 41.5381 112.47 41.8952 112.196 42.2166C111.929 42.5341 111.598 42.8027 111.202 43.0225C111.101 43.0784 110.993 43.1292 110.877 43.1747C110.765 43.2274 110.661 43.2614 110.566 43.2765L108.049 38.7397L109.129 38.1403L111.203 41.8778L110.323 41.4898C110.691 41.3708 110.976 41.1889 111.179 40.9442C111.386 40.7068 111.504 40.4344 111.531 40.1273C111.562 39.8273 111.492 39.5225 111.32 39.2128C111.157 38.9176 110.935 38.6967 110.656 38.5502C110.384 38.3997 110.07 38.3431 109.714 38.3805C109.37 38.4212 109.004 38.5678 108.616 38.8203C108.24 38.9913 107.946 39.216 107.733 39.4943C107.531 39.7757 107.423 40.0808 107.407 40.4096C107.396 40.7456 107.48 41.0756 107.66 41.3997C107.84 41.7237 108.06 41.9594 108.321 42.1067C108.585 42.2612 108.869 42.3394 109.171 42.3411L109.245 43.7978C108.9 43.8385 108.552 43.7963 108.2 43.6713C107.848 43.5464 107.517 43.3486 107.207 43.0781C106.901 42.8148 106.636 42.4815 106.412 42.0782Z" fill="white"/>
<path d="M109.736 49.5278C109.523 48.9045 109.472 48.2863 109.584 47.6734C109.699 47.0682 109.954 46.5282 110.348 46.0536C110.745 45.5867 111.263 45.2439 111.902 45.025C112.541 44.8062 113.161 44.7594 113.761 44.8847C114.363 45.0178 114.895 45.2882 115.357 45.6959C115.819 46.1036 116.158 46.623 116.374 47.2541C116.587 47.8774 116.637 48.4917 116.522 49.0968C116.407 49.702 116.151 50.2381 115.754 50.7049C115.367 51.1769 114.85 51.5237 114.204 51.7452C113.565 51.964 112.944 52.0069 112.342 51.8738C111.739 51.7407 111.207 51.4703 110.745 51.0626C110.283 50.6549 109.947 50.1433 109.736 49.5278ZM111.138 49.0474C111.256 49.3903 111.44 49.6622 111.692 49.8633C111.946 50.0722 112.243 50.2012 112.582 50.2505C112.931 50.3049 113.289 50.2694 113.655 50.144C114.029 50.0159 114.33 49.8259 114.557 49.574C114.795 49.3272 114.95 49.0434 115.023 48.7224C115.106 48.4066 115.089 48.0773 114.972 47.7344C114.852 47.3838 114.66 47.1054 114.398 46.8992C114.144 46.6904 113.846 46.5574 113.504 46.5003C113.173 46.4483 112.821 46.4864 112.447 46.6145C112.08 46.7399 111.775 46.9274 111.529 47.1768C111.294 47.4314 111.141 47.7191 111.068 48.0401C110.995 48.361 111.018 48.6968 111.138 49.0474Z" fill="white"/>
<path d="M116.509 58.0356L117.113 56.9669L118.436 57.7153L118.744 56.2471L119.942 56.4878L119.647 57.9546L121.217 57.7647L121.365 58.9911L119.795 59.181L120.432 60.535L119.325 61.0547L118.676 59.7021L117.57 60.7443L116.727 59.8384L117.832 58.7963L116.509 58.0356Z" fill="white"/>
<path d="M112.008 70.4849C112.087 69.8142 112.28 69.2026 112.586 68.65C112.891 68.0974 113.283 67.6295 113.759 67.2463C114.236 66.8632 114.775 66.5828 115.376 66.4052C115.985 66.2368 116.625 66.1922 117.295 66.2716C117.974 66.3519 118.586 66.5446 119.13 66.8495C119.674 67.1544 120.134 67.5488 120.508 68.0326C120.882 68.5164 121.149 69.0622 121.309 69.67C121.477 70.2788 121.521 70.9226 121.441 71.6014C121.361 72.2802 121.168 72.896 120.862 73.4486C120.556 74.0012 120.165 74.4691 119.688 74.8522C119.22 75.2363 118.685 75.5131 118.085 75.6825C117.483 75.8601 116.843 75.9088 116.164 75.8284C115.494 75.7491 114.883 75.5523 114.331 75.2383C113.788 74.9251 113.329 74.5267 112.955 74.0429C112.581 73.5591 112.31 73.0128 112.141 72.404C111.972 71.8034 111.927 71.1637 112.008 70.4849ZM113.529 70.6649C113.476 71.1148 113.504 71.537 113.615 71.9316C113.734 72.3272 113.92 72.6809 114.174 72.9929C114.426 73.313 114.74 73.5699 115.115 73.7636C115.489 73.9655 115.905 74.0935 116.363 74.1477C116.821 74.2019 117.252 74.1741 117.654 74.0641C118.064 73.9634 118.429 73.7868 118.749 73.5344C119.077 73.2912 119.34 72.9907 119.54 72.6328C119.74 72.275 119.867 71.8712 119.92 71.4214C119.972 70.9797 119.943 70.5616 119.832 70.167C119.721 69.7724 119.536 69.4145 119.275 69.0934C119.022 68.7814 118.708 68.5245 118.334 68.3227C117.968 68.1218 117.556 67.9942 117.098 67.94C116.64 67.8858 116.205 67.9132 115.794 68.0221C115.383 68.1311 115.018 68.3076 114.699 68.5518C114.379 68.8042 114.115 69.1088 113.907 69.4657C113.707 69.8235 113.581 70.2233 113.529 70.6649Z" fill="white"/>
<path d="M110.113 79.3351C110.276 78.8424 110.527 78.4483 110.868 78.153C111.205 77.8654 111.602 77.6884 112.057 77.6219C112.51 77.5632 112.999 77.6203 113.523 77.7932L117.429 79.082L116.922 80.6189L113.145 79.3726C112.879 79.2849 112.628 79.2583 112.391 79.2929C112.159 79.3379 111.952 79.4388 111.771 79.5956C111.594 79.7629 111.464 79.9716 111.382 80.2219C111.299 80.4722 111.28 80.7131 111.325 80.9448C111.378 81.179 111.488 81.3844 111.655 81.561C111.823 81.7376 112.047 81.8723 112.329 81.9652L116.071 83.1999L115.564 84.7367L109.182 82.6312L109.662 81.1765L110.917 81.5906L110.652 81.6461C110.31 81.3685 110.098 81.0254 110.016 80.6168C109.931 80.2159 109.964 79.7887 110.113 79.3351Z" fill="white"/>
<path d="M108.464 84.1685L114.523 87.0739L113.867 88.4441L112.519 87.7978L112.773 87.7826C113.158 88.1409 113.369 88.5113 113.404 88.8938C113.437 89.2837 113.351 89.6903 113.148 90.1136L112.978 90.4701L111.685 89.8506L111.936 89.327C112.136 88.9111 112.166 88.5146 112.027 88.1375C111.896 87.764 111.6 87.4668 111.139 87.2461L107.764 85.6278L108.464 84.1685Z" fill="white"/>
<path d="M103.679 92.5342L112.988 95.4233L111.901 96.8935L104.275 94.3882L104.488 94.1001L109.118 100.658L108.031 102.128L102.533 94.0838L103.679 92.5342Z" fill="white"/>
<path d="M99.9684 97.1085L104.84 101.737L103.726 102.911L98.8538 98.2817L99.9684 97.1085ZM105.386 102.256L106.64 103.448L105.526 104.621L104.272 103.43L105.386 102.256Z" fill="white"/>
<path d="M95.2495 101.39C95.7529 100.978 96.2986 100.728 96.8867 100.64C97.48 100.559 98.0609 100.631 98.6294 100.858C99.1979 101.084 99.6882 101.449 100.1 101.952C100.518 102.462 100.779 103.015 100.883 103.611C100.988 104.206 100.941 104.787 100.744 105.352C100.541 105.923 100.194 106.41 99.7037 106.811C99.3086 107.135 98.893 107.342 98.4567 107.433C98.0192 107.536 97.5965 107.52 97.1886 107.386L97.1685 106.971L99.6803 110.04L98.4282 111.065L92.5046 103.829L93.6898 102.858L94.5114 103.862L94.1742 103.723C94.123 103.296 94.1942 102.876 94.3876 102.463C94.5862 102.055 94.8735 101.697 95.2495 101.39ZM96.0547 102.646C95.7679 102.881 95.571 103.154 95.4639 103.465C95.3568 103.776 95.3392 104.1 95.4112 104.434C95.4767 104.775 95.6347 105.098 95.8851 105.403C96.1303 105.703 96.4132 105.918 96.7336 106.05C97.0529 106.193 97.3757 106.243 97.7019 106.199C98.0281 106.156 98.3346 106.016 98.6213 105.782C98.9017 105.552 99.096 105.276 99.2043 104.953C99.3177 104.637 99.3417 104.308 99.2761 103.968C99.2094 103.64 99.0508 103.323 98.8004 103.017C98.55 102.711 98.2677 102.489 97.9536 102.353C97.6332 102.221 97.3067 102.18 96.9741 102.229C96.6415 102.278 96.335 102.417 96.0547 102.646Z" fill="white"/>
<path d="M88.0253 106.346C88.6294 106.009 89.2342 105.85 89.8397 105.871C90.4453 105.891 91.0043 106.065 91.5169 106.392C92.0294 106.719 92.4442 107.167 92.7612 107.735C93.0903 108.324 93.2554 108.916 93.2566 109.51C93.2545 110.114 93.1084 110.672 92.8183 111.183C92.5209 111.698 92.0989 112.108 91.5524 112.413C91.0922 112.67 90.6473 112.819 90.2179 112.861C89.7812 112.906 89.3664 112.864 88.9734 112.735C88.5804 112.605 88.2229 112.404 87.9008 112.131C87.5828 111.865 87.3134 111.534 87.0927 111.139C87.0365 111.038 86.9855 110.93 86.9397 110.814C86.8866 110.702 86.8525 110.599 86.8371 110.503L91.3675 107.975L91.9695 109.054L88.2373 111.137L88.6231 110.256C88.743 110.623 88.9255 110.908 89.1707 111.111C89.4086 111.318 89.6812 111.434 89.9884 111.461C90.2884 111.492 90.5931 111.421 90.9023 111.248C91.1971 111.083 91.4175 110.861 91.5633 110.582C91.7131 110.31 91.7689 109.996 91.7307 109.64C91.6892 109.295 91.5417 108.929 91.2882 108.543C91.1163 108.167 90.891 107.873 90.6122 107.661C90.3303 107.46 90.0249 107.352 89.6962 107.337C89.3602 107.327 89.0304 107.412 88.7068 107.593C88.3832 107.773 88.1481 107.994 88.0014 108.255C87.8475 108.52 87.7701 108.804 87.769 109.106L86.3126 109.183C86.2712 108.839 86.3125 108.49 86.4366 108.138C86.5607 107.786 86.7576 107.454 87.0274 107.143C87.29 106.837 87.6226 106.571 88.0253 106.346Z" fill="white"/>
<path d="M80.5839 109.689C81.2066 109.474 81.8246 109.422 82.4378 109.532C83.0432 109.646 83.5837 109.899 84.0593 110.293C84.5271 110.689 84.8712 111.206 85.0915 111.844C85.3119 112.483 85.3602 113.102 85.2363 113.702C85.1047 114.305 84.8357 114.838 84.4291 115.301C84.0225 115.764 83.504 116.104 82.8735 116.322C82.2507 116.537 81.6366 116.587 81.0312 116.474C80.4258 116.361 79.8892 116.106 79.4214 115.71C78.9485 115.324 78.6005 114.808 78.3775 114.162C78.1571 113.524 78.1127 112.903 78.2443 112.3C78.3759 111.697 78.645 111.164 79.0516 110.701C79.4581 110.239 79.9689 109.901 80.5839 109.689ZM81.0676 111.09C80.7251 111.208 80.4536 111.394 80.2531 111.646C80.0449 111.901 79.9165 112.198 79.8681 112.537C79.8145 112.886 79.8509 113.244 79.9772 113.61C80.1062 113.984 80.2969 114.284 80.5493 114.51C80.7966 114.747 81.0809 114.902 81.402 114.974C81.718 115.056 82.0472 115.039 82.3897 114.92C82.74 114.799 83.018 114.608 83.2235 114.345C83.4317 114.09 83.564 113.792 83.6203 113.45C83.6714 113.119 83.6325 112.766 83.5035 112.393C83.3772 112.027 83.189 111.721 82.939 111.477C82.6839 111.242 82.3958 111.089 82.0747 111.017C81.7536 110.945 81.4179 110.969 81.0676 111.09Z" fill="white"/>
<path d="M72.0939 116.482L73.164 117.084L72.4188 118.409L73.8877 118.713L73.6498 119.912L72.1824 119.62L72.3761 121.19L71.1501 121.341L70.9565 119.772L69.6041 120.411L69.0818 119.306L70.4327 118.654L69.388 117.55L70.2917 116.704L71.3365 117.808L72.0939 116.482Z" fill="white"/>
<path d="M59.635 112.01C60.3058 112.088 60.9178 112.279 61.4711 112.584C62.0244 112.888 62.4932 113.279 62.8775 113.754C63.2617 114.23 63.5434 114.768 63.7224 115.369C63.8923 115.978 63.9384 116.617 63.8606 117.288C63.7819 117.967 63.5908 118.579 63.2872 119.125C62.9836 119.67 62.5903 120.13 62.1074 120.505C61.6246 120.88 61.0795 121.149 60.4721 121.31C59.8638 121.48 59.2201 121.526 58.5412 121.447C57.8622 121.368 57.246 121.177 56.6927 120.872C56.1394 120.568 55.6706 120.178 55.2864 119.702C54.9012 119.234 54.6231 118.701 54.4523 118.1C54.2733 117.499 54.2231 116.859 54.3018 116.18C54.3795 115.509 54.5748 114.898 54.8875 114.345C55.1993 113.801 55.5967 113.341 56.0795 112.966C56.5624 112.591 57.108 112.318 57.7163 112.149C58.3164 111.978 58.956 111.932 59.635 112.01ZM59.4586 113.532C59.0087 113.48 58.5865 113.51 58.1922 113.621C57.797 113.741 57.4437 113.929 57.1323 114.183C56.8128 114.436 56.5567 114.75 56.3639 115.126C56.163 115.5 56.036 115.917 55.9829 116.375C55.9298 116.833 55.9587 117.263 56.0695 117.666C56.1712 118.076 56.3487 118.44 56.6018 118.76C56.8458 119.087 57.1469 119.35 57.5052 119.549C57.8635 119.748 58.2676 119.873 58.7175 119.925C59.1593 119.977 59.5773 119.946 59.9716 119.835C60.3659 119.723 60.7233 119.536 61.0438 119.275C61.3551 119.021 61.6112 118.706 61.8122 118.332C62.0122 117.965 62.1387 117.553 62.1918 117.095C62.2449 116.637 62.2165 116.202 62.1066 115.791C61.9967 115.381 61.8193 115.016 61.5743 114.698C61.3212 114.378 61.016 114.115 60.6586 113.907C60.3003 113.708 59.9003 113.583 59.4586 113.532Z" fill="white"/>
<path d="M50.7805 110.138C51.2736 110.299 51.6682 110.55 51.9644 110.889C52.2527 111.226 52.4307 111.623 52.4983 112.078C52.5581 112.531 52.5021 113.019 52.3306 113.544L51.0513 117.454L49.5133 116.95L50.7503 113.17C50.8374 112.904 50.8634 112.652 50.8282 112.415C50.7827 112.184 50.6813 111.977 50.524 111.796C50.3564 111.62 50.1473 111.491 49.8968 111.409C49.6464 111.327 49.4054 111.308 49.1739 111.354C48.9398 111.407 48.7347 111.518 48.5585 111.686C48.3823 111.853 48.2481 112.078 48.1559 112.36L46.9304 116.105L45.3925 115.602L47.4823 109.215L48.9381 109.691L48.5271 110.947L48.4709 110.682C48.7477 110.339 49.0903 110.126 49.4987 110.043C49.8993 109.958 50.3265 109.989 50.7805 110.138Z" fill="white"/>
<path d="M45.9448 108.5L43.0543 114.567L41.6827 113.913L42.3256 112.564L42.3415 112.818C41.9841 113.204 41.6143 113.415 41.2319 113.452C40.8421 113.485 40.4353 113.401 40.0115 113.199L39.6546 113.029L40.271 111.735L40.7951 111.985C41.2115 112.183 41.608 112.213 41.9847 112.073C42.358 111.941 42.6544 111.644 42.874 111.183L44.4839 107.804L45.9448 108.5Z" fill="white"/>
<path d="M37.5677 103.734L34.7012 113.051L33.2285 111.967L35.7153 104.334L36.0038 104.546L29.4574 109.193L27.9848 108.109L36.0154 102.592L37.5677 103.734Z" fill="white"/>
<path d="M32.984 100.034L28.367 104.917L27.1912 103.806L31.8082 98.9225L32.984 100.034ZM27.8493 105.465L26.6611 106.722L25.4853 105.61L26.6735 104.353L27.8493 105.465Z" fill="white"/>
<path d="M28.6918 95.3262C29.1051 95.8287 29.3563 96.3739 29.4454 96.9618C29.5281 97.555 29.4569 98.1361 29.2319 98.7051C29.0069 99.2742 28.6432 99.7654 28.1408 100.179C27.632 100.597 27.0799 100.86 26.4846 100.966C25.8892 101.071 25.3085 101.027 24.7424 100.831C24.1712 100.629 23.6841 100.284 23.2812 99.7938C22.9568 99.3995 22.7486 98.9843 22.6564 98.5482C22.5527 98.111 22.5675 97.6882 22.7008 97.2799L23.1153 97.2588L20.0532 99.7782L19.0251 98.5284L26.2464 92.587L27.2196 93.77L26.2179 94.5941L26.3561 94.2565C26.7824 94.2043 27.2027 94.2745 27.6169 94.4669C28.0248 94.6646 28.3831 94.951 28.6918 95.3262ZM27.4371 96.1345C27.2017 95.8483 26.9283 95.652 26.6168 95.5457C26.3054 95.4393 25.9823 95.4225 25.6476 95.4953C25.3076 95.5617 24.985 95.7204 24.6798 95.9716C24.3809 96.2175 24.1661 96.5009 24.0354 96.8217C23.8932 97.1414 23.8442 97.4643 23.8886 97.7904C23.9329 98.1165 24.0728 98.4227 24.3082 98.7089C24.5384 98.9887 24.8151 99.1824 25.1381 99.2899C25.4548 99.4026 25.7831 99.4257 26.123 99.3593C26.4514 99.2918 26.7682 99.1325 27.0734 98.8813C27.3787 98.6302 27.5993 98.3474 27.7352 98.0329C27.8658 97.7121 27.9064 97.3855 27.8568 97.053C27.8072 96.7205 27.6674 96.4144 27.4371 96.1345Z" fill="white"/>
<path d="M23.7188 88.1138C24.0573 88.7171 24.2171 89.3215 24.1982 89.9272C24.1792 90.5328 24.0068 91.0923 23.6811 91.6057C23.3554 92.119 22.9088 92.5349 22.3415 92.8534C21.7526 93.1839 21.1614 93.3505 20.5679 93.353C19.9632 93.3524 19.4051 93.2077 18.8935 92.9187C18.3779 92.6226 17.9669 92.2016 17.6606 91.6557C17.4027 91.1961 17.2524 90.7516 17.2097 90.3222C17.163 89.8856 17.204 89.4707 17.3327 89.0774C17.4614 88.684 17.6618 88.326 17.934 88.0032C18.1989 87.6845 18.5289 87.4143 18.9239 87.1926C19.0244 87.1362 19.1326 87.0849 19.2484 87.0388C19.3601 86.9855 19.4636 86.9511 19.5587 86.9355L22.0979 91.4601L21.0207 92.0648L18.9289 88.3373L19.81 88.7211C19.4434 88.8418 19.159 89.0251 18.9569 89.2707C18.7508 89.5092 18.6348 89.7821 18.6089 90.0894C18.579 90.3895 18.6507 90.6939 18.824 91.0028C18.9893 91.2972 19.2118 91.517 19.4916 91.6622C19.7642 91.8114 20.0784 91.8665 20.4341 91.8273C20.7787 91.785 21.144 91.6367 21.5301 91.3822C21.9053 91.2094 22.1986 90.9833 22.4102 90.704C22.6105 90.4216 22.7176 90.116 22.7314 89.7871C22.7411 89.4511 22.6553 89.1215 22.4739 88.7983C22.2926 88.4751 22.0712 88.2405 21.8098 88.0944C21.5444 87.9412 21.2605 87.8644 20.9581 87.8641L20.8774 86.4078C21.222 86.3655 21.5705 86.406 21.923 86.5293C22.2755 86.6525 22.6075 86.8487 22.919 87.1177C23.2265 87.3796 23.4931 87.7116 23.7188 88.1138Z" fill="white"/>
<path d="M20.3576 80.6786C20.5741 81.3009 20.6278 81.9188 20.5186 82.5323C20.4067 83.138 20.1546 83.6792 19.7624 84.1558C19.3674 84.6245 18.8511 84.9699 18.2133 85.1918C17.5755 85.4137 16.9563 85.4635 16.3557 85.3411C15.7523 85.211 15.2188 84.9432 14.7552 84.5377C14.2915 84.1323 13.95 83.6145 13.7308 82.9844C13.5143 82.3622 13.462 81.7482 13.5739 81.1424C13.6858 80.5367 13.9392 79.9994 14.3342 79.5306C14.7186 79.0568 15.2337 78.7075 15.8792 78.4829C16.517 78.261 17.1376 78.2151 17.7409 78.3453C18.3442 78.4754 18.8777 78.7432 19.3414 79.1487C19.8051 79.5542 20.1438 80.0641 20.3576 80.6786ZM18.9576 81.1658C18.8385 80.8235 18.6527 80.5525 18.4 80.3526C18.1447 80.145 17.8474 80.0173 17.5082 79.9697C17.1585 79.917 16.8009 79.9542 16.4353 80.0814C16.062 80.2113 15.7624 80.4027 15.5365 80.6557C15.3001 80.9037 15.1463 81.1883 15.075 81.5096C14.9932 81.8258 15.0118 82.155 15.1309 82.4973C15.2526 82.8473 15.4451 83.1248 15.7082 83.3297C15.9636 83.5374 16.2622 83.6689 16.6041 83.7243C16.9355 83.7747 17.2879 83.7349 17.6612 83.605C18.0268 83.4778 18.3316 83.2889 18.5758 83.0383C18.8094 82.7826 18.9619 82.4941 19.0333 82.1728C19.1046 81.8515 19.0794 81.5158 18.9576 81.1658Z" fill="white"/>
<path d="M13.5445 72.2051L12.9447 73.2767L11.6188 72.5346L11.3181 74.0043L10.1182 73.7693L10.4066 72.3011L8.83784 72.4986L8.68362 71.2728L10.2524 71.0754L9.60933 69.7245L10.7136 69.1995L11.3689 70.549L12.4697 69.5015L13.3178 70.4033L12.217 71.4508L13.5445 72.2051Z" fill="white"/>
<path d="M17.9864 59.7343C17.9103 60.4053 17.7206 61.0179 17.4174 61.5719C17.1142 62.126 16.7252 62.5958 16.2505 62.9812C15.7757 63.3666 15.2381 63.6496 14.6374 63.8301C14.0295 64.0015 13.3901 64.0491 12.7191 63.9729C12.0399 63.8958 11.4274 63.7061 10.8816 63.4038C10.3357 63.1015 9.87463 62.7093 9.49835 62.2273C9.12206 61.7453 8.85233 61.2008 8.68914 60.5938C8.51778 59.9858 8.47063 59.3423 8.54771 58.663C8.62478 57.9838 8.81494 57.3672 9.11817 56.8131C9.4214 56.259 9.81037 55.7893 10.2851 55.4039C10.7516 55.0175 11.2847 54.7382 11.8845 54.5659C12.4851 54.3854 13.125 54.3337 13.8042 54.4108C14.4752 54.4869 15.0872 54.6807 15.6403 54.9921C16.1853 55.3026 16.6459 55.6989 17.0221 56.1809C17.3984 56.6629 17.6723 57.2079 17.8436 57.8158C18.0159 58.4156 18.0635 59.0551 17.9864 59.7343ZM16.4645 59.5615C16.5155 59.1115 16.4847 58.6894 16.3719 58.2953C16.251 57.9003 16.0631 57.5474 15.8083 57.2367C15.5544 56.9178 15.2394 56.6624 14.8634 56.4705C14.4883 56.2705 14.0716 56.1444 13.6134 56.0924C13.1551 56.0404 12.7249 56.0703 12.3227 56.1822C11.9132 56.2849 11.549 56.4632 11.2301 56.7171C10.9039 56.9619 10.6418 57.2637 10.4436 57.6225C10.2454 57.9813 10.1208 58.3857 10.0697 58.8358C10.0195 59.2777 10.0508 59.6957 10.1636 60.0897C10.2764 60.4838 10.4638 60.8408 10.7258 61.1606C10.9807 61.4714 11.2956 61.7268 11.6708 61.9268C12.0377 62.1259 12.4503 62.2515 12.9085 62.3035C13.3668 62.3555 13.8011 62.3261 14.2115 62.2152C14.6219 62.1043 14.9861 61.926 15.3041 61.6802C15.623 61.4263 15.8856 61.1204 16.092 60.7626C16.2902 60.4038 16.4143 60.0034 16.4645 59.5615Z" fill="white"/>
<path d="M19.8379 50.8741C19.6777 51.3676 19.4283 51.7628 19.0895 52.0598C18.7532 52.349 18.3575 52.5279 17.9022 52.5967C17.4496 52.6575 16.9608 52.6028 16.436 52.4325L12.5234 51.1626L13.023 49.6233L16.8063 50.8512C17.0726 50.9377 17.3242 50.963 17.5609 50.9273C17.7923 50.8812 17.9985 50.7793 18.1796 50.6216C18.3553 50.4535 18.4839 50.2441 18.5652 49.9934C18.6466 49.7428 18.6642 49.5017 18.6181 49.2703C18.5641 49.0363 18.4531 48.8314 18.2851 48.6557C18.117 48.4799 17.892 48.3462 17.61 48.2547L13.8619 47.0382L14.3614 45.4989L20.7532 47.5734L20.2803 49.0305L19.0231 48.6225L19.2883 48.5657C19.6317 48.8416 19.8453 49.1837 19.9293 49.5919C20.0158 49.9923 19.9853 50.4197 19.8379 50.8741Z" fill="white"/>
<path d="M21.4633 46.0351L15.3897 43.1592L16.0399 41.7858L17.3909 42.4255L17.137 42.442C16.75 42.0856 16.5376 41.7162 16.4999 41.3339C16.4658 40.9441 16.5492 40.5371 16.75 40.1128L16.9192 39.7555L18.2143 40.3687L17.9658 40.8935C17.7685 41.3104 17.7402 41.707 17.8808 42.0834C18.0141 42.4563 18.3114 42.7521 18.7729 42.9706L22.1558 44.5724L21.4633 46.0351Z" fill="white"/>
<path d="M26.2083 37.6456L16.8853 34.8013L17.9651 33.3259L25.6037 35.7945L25.3921 36.0836L20.7304 29.5479L21.8102 28.0725L27.3465 36.0905L26.2083 37.6456Z" fill="white"/>
<path d="M29.8968 33.0519L25.003 28.4463L26.112 27.2678L31.0058 31.8734L29.8968 33.0519ZM24.4543 27.9299L23.1948 26.7446L24.3038 25.5661L25.5632 26.7513L24.4543 27.9299Z" fill="white"/>
<path d="M34.5952 28.7495C34.0938 29.164 33.5492 29.4166 32.9616 29.5071C32.3687 29.5912 31.7874 29.5214 31.2179 29.2978C30.6483 29.0741 30.1562 28.7115 29.7417 28.2101C29.3219 27.7023 29.0584 27.1508 28.951 26.5557C28.8437 25.9605 28.8871 25.3796 29.0812 24.8131C29.2817 24.2413 29.6263 23.7533 30.115 23.3493C30.5085 23.0239 30.9232 22.8146 31.359 22.7214C31.796 22.6167 32.2187 22.6304 32.6273 22.7628L32.6494 23.1773L30.1229 20.121L31.3701 19.0898L37.3284 26.2974L36.1478 27.2735L35.3214 26.2737L35.6593 26.4111C35.7125 26.8373 35.6433 27.2578 35.4519 27.6725C35.2552 28.0809 34.9697 28.4399 34.5952 28.7495ZM33.784 27.4967C34.0696 27.2606 34.2652 26.9866 34.3708 26.6749C34.4764 26.3632 34.4924 26.0401 34.4189 25.7055C34.3517 25.3657 34.1921 25.0435 33.9403 24.7388C33.6937 24.4404 33.4098 24.2263 33.0887 24.0964C32.7687 23.9549 32.4457 23.9067 32.1197 23.9519C31.7937 23.997 31.4879 24.1376 31.2023 24.3738C30.9231 24.6046 30.7301 24.8818 30.6234 25.2051C30.5114 25.522 30.489 25.8504 30.5562 26.1902C30.6245 26.5184 30.7846 26.8349 31.0365 27.1396C31.2884 27.4443 31.5717 27.6642 31.8864 27.7993C32.2075 27.9292 32.5342 27.969 32.8666 27.9186C33.1989 27.8683 33.5047 27.7276 33.784 27.4967Z" fill="white"/>
<path d="M41.7953 23.7587C41.1929 24.0988 40.5889 24.26 39.9832 24.2425C39.3776 24.225 38.8177 24.054 38.3036 23.7295C37.7895 23.4049 37.3725 22.9594 37.0528 22.3928C36.7208 21.8046 36.5529 21.2138 36.5489 20.6203C36.548 20.0155 36.6914 19.457 36.9791 18.9447C37.274 18.4283 37.694 18.0163 38.239 17.7087C38.698 17.4496 39.1421 17.2982 39.5714 17.2545C40.0078 17.2068 40.4228 17.2468 40.8164 17.3745C41.21 17.5023 41.5685 17.7018 41.8919 17.9732C42.2113 18.2375 42.4823 18.5668 42.7049 18.9613C42.7616 19.0617 42.8131 19.1697 42.8594 19.2854C42.913 19.3971 42.9477 19.5004 42.9635 19.5955L38.4453 22.1458L37.8381 21.07L41.5603 18.969L41.1787 19.8511C41.057 19.4848 40.8731 19.2008 40.627 18.9993C40.3881 18.7937 40.1149 18.6784 39.8076 18.6532C39.5074 18.6241 39.2032 18.6965 38.8948 18.8706C38.6007 19.0365 38.3815 19.2596 38.237 19.5398C38.0884 19.8128 38.0342 20.1271 38.0742 20.4828C38.1173 20.8273 38.2665 21.1923 38.5219 21.5777C38.6956 21.9525 38.9223 22.2454 39.2021 22.4563C39.485 22.656 39.7909 22.7623 40.1197 22.7753C40.4558 22.7842 40.7851 22.6976 41.1079 22.5154C41.4306 22.3333 41.6647 22.1113 41.8101 21.8495C41.9627 21.5837 42.0387 21.2996 42.0383 20.9973L43.4943 20.913C43.5375 21.2575 43.4978 21.6062 43.3754 21.959C43.253 22.3118 43.0577 22.6443 42.7894 22.9565C42.5283 23.2646 42.197 23.532 41.7953 23.7587Z" fill="white"/>
<path d="M49.2214 20.3789C48.5996 20.597 47.9819 20.6521 47.3682 20.5444C46.7622 20.434 46.2205 20.1832 45.743 19.7921C45.2733 19.3983 44.9268 18.8827 44.7033 18.2454C44.4799 17.6081 44.4286 16.989 44.5495 16.388C44.6782 15.7843 44.9447 15.2501 45.349 14.7855C45.7533 14.3208 46.2702 13.978 46.8997 13.7573C47.5214 13.5393 48.1352 13.4855 48.7412 13.5959C49.3471 13.7064 49.885 13.9585 50.3547 14.3523C50.8294 14.7357 51.1799 15.2499 51.4061 15.8949C51.6295 16.5322 51.6769 17.1527 51.5482 17.7564C51.4195 18.3601 51.153 18.8943 50.7487 19.359C50.3444 19.8237 49.8353 20.1637 49.2214 20.3789ZM48.7309 18.98C49.0728 18.8601 49.3434 18.6736 49.5426 18.4204C49.7496 18.1646 49.8765 17.867 49.9234 17.5276C49.9752 17.1778 49.9371 16.8202 49.8091 16.455C49.6783 16.0819 49.4861 15.7827 49.2326 15.5575C48.9841 15.3217 48.6991 15.1685 48.3777 15.098C48.0613 15.0169 47.7321 15.0363 47.3902 15.1562C47.0405 15.2789 46.7635 15.472 46.5592 15.7356C46.3522 15.9915 46.2214 16.2905 46.1668 16.6325C46.1172 16.9641 46.1579 17.3164 46.2887 17.6895C46.4167 18.0547 46.6064 18.3592 46.8576 18.6027C47.1138 18.8358 47.4027 18.9876 47.7241 19.0581C48.0456 19.1287 48.3812 19.1026 48.7309 18.98Z" fill="white"/>
<path d="M57.679 13.5447L56.6061 12.9474L57.3449 11.6196L55.8746 11.3225L56.1067 10.122L57.5755 10.4068L57.3743 8.83842L58.5996 8.68126L58.8007 10.2497L60.15 9.60332L60.6776 10.7064L59.3298 11.365L60.3798 12.4634L59.4801 13.3136L58.4301 12.2153L57.679 13.5447Z" fill="white"/>
<defs>
<linearGradient id="paint0_linear_405_405" x1="0.00585938" y1="65.0005" x2="130.006" y2="65.0005" gradientUnits="userSpaceOnUse">
<stop stop-color="#0F2453"/>
<stop offset="1" stop-color="#3F82FB"/>
</linearGradient>
<clipPath id="clip0_405_405">
<rect width="22" height="22" fill="white" transform="translate(56.1045 53.5894)"/>
</clipPath>
</defs>
</svg>
