<svg width="40" height="40" viewBox="0 0 40 40" fill="none" xmlns="http://www.w3.org/2000/svg">
<path d="M13.846 18.4609H8.46136C7.82029 18.4609 7.27529 18.2366 6.82653 17.7879C6.37802 17.3391 6.15346 16.7943 6.15346 16.153V15.3841C6.15346 13.6853 6.75454 12.2351 7.95661 11.033C9.15859 9.8314 10.609 9.23032 12.3077 9.23032H13.846C14.2626 9.23032 14.6231 9.07801 14.9277 8.77364C15.2321 8.46911 15.3844 8.10866 15.3844 7.69197V4.61477C15.3844 4.19817 15.2321 3.83739 14.9277 3.53285C14.6232 3.22874 14.2627 3.07617 13.846 3.07617H12.3077C10.6409 3.07617 9.05065 3.401 7.53605 4.04973C6.02161 4.69889 4.71169 5.57638 3.60578 6.68229C2.49995 7.78771 1.62271 9.09771 0.973642 10.6123C0.324576 12.1268 0 13.7174 0 15.3841V32.3067C0 33.5895 0.448512 34.6786 1.34596 35.5764C2.24349 36.4737 3.33349 36.9223 4.61546 36.9223H13.8466C15.1285 36.9223 16.2182 36.4737 17.1158 35.5764C18.0131 34.6786 18.4618 33.5895 18.4618 32.3067V23.0764C18.4618 21.7939 18.0131 20.7047 17.1152 19.8069C16.218 18.9097 15.1279 18.4609 13.846 18.4609Z" fill="white" fill-opacity="0.1"/>
<path d="M38.6547 19.8069C37.7575 18.9097 36.6677 18.4609 35.3855 18.4609H30.0009C29.3602 18.4609 28.8147 18.2366 28.3667 17.7879C27.9177 17.3391 27.6936 16.7943 27.6936 16.153V15.3841C27.6936 13.6853 28.2947 12.2351 29.4962 11.033C30.6977 9.8314 32.1481 9.23032 33.8476 9.23032H35.3856C35.8023 9.23032 36.163 9.07801 36.4673 8.77364C36.7715 8.46911 36.9244 8.10866 36.9244 7.69197V4.61477C36.9244 4.19817 36.7716 3.83739 36.4673 3.53285C36.1631 3.22874 35.8024 3.07617 35.3856 3.07617H33.8476C32.1798 3.07617 30.59 3.401 29.0749 4.04973C27.5608 4.69889 26.2513 5.57638 25.1453 6.68229C24.0394 7.78771 23.1618 9.09771 22.513 10.6123C21.8641 12.1268 21.5391 13.7174 21.5391 15.3841V32.3067C21.5391 33.5895 21.988 34.6786 22.8852 35.5764C23.7825 36.4737 24.8722 36.9223 26.1543 36.9223H35.385C36.6672 36.9223 37.7569 36.4737 38.6541 35.5764C39.552 34.6786 40 33.5895 40 32.3067V23.0764C40 21.7938 39.552 20.7047 38.6547 19.8069Z" fill="white" fill-opacity="0.1"/>
</svg>
